<svg width="31" height="34" viewBox="0 0 31 34" fill="none" xmlns="http://www.w3.org/2000/svg">
<path d="M18.5982 11.6157H16.8499L18.254 5.91107C18.7766 3.78512 17.4765 1.63793 15.3501 1.11547C13.2237 0.593008 11.076 1.89279 10.5534 4.01874L7.44127 16.6661C7.05252 18.2441 7.67069 19.8306 8.88156 20.7609V28.6063C8.88156 30.796 10.6575 32.5715 12.8477 32.5715H18.5982C24.3848 32.5715 29.0775 27.8799 29.0775 22.0946C29.0775 16.3093 24.3848 11.6178 18.5982 11.6178V11.6157Z" fill="white" stroke="#FF7F00" stroke-width="2" stroke-linecap="round" stroke-linejoin="round"/>
<path d="M9.14492 15.5809C9.14492 13.391 7.36972 11.6157 5.17988 11.6157C2.99005 11.6157 1.21484 13.391 1.21484 15.5809V28.6042C1.21484 30.7941 2.99005 32.5694 5.17988 32.5694C7.36972 32.5694 9.14492 30.7941 9.14492 28.6042V15.5809Z" fill="#FF7F00" stroke="#FF7F00" stroke-width="2" stroke-linecap="round" stroke-linejoin="round"/>
</svg>
