<svg width="155" height="109" viewBox="0 0 155 109" fill="none" xmlns="http://www.w3.org/2000/svg">
<path d="M106.023 11.3888C95.2725 10.5185 83.5272 11.0904 71.5746 13.1295C51.9217 16.4865 33.9016 23.4409 20.8218 32.7078C6.47373 42.8783 -0.513803 54.9137 1.15226 66.5928C2.81833 78.2718 12.8147 87.4062 29.3096 92.3132C35.203 94.0621 41.7181 95.2226 48.6476 95.7862C50.6286 95.9437 52.6345 96.0597 54.6819 96.1178C63.7333 96.3913 73.3484 95.7033 83.0962 94.0373C102.749 90.6803 120.769 83.7259 133.849 74.4589C148.197 64.2885 155.185 52.253 153.519 40.574C151.852 28.8949 141.856 19.7606 125.361 14.8536C119.468 13.1129 112.953 11.9525 106.023 11.3888Z" fill="#FF7F00"/>
<path d="M58.6191 96.8061C57.2929 96.8061 55.9667 96.7895 54.657 96.748C52.618 96.6817 50.5789 96.574 48.5979 96.4165C41.5689 95.8446 35.0207 94.6758 29.1356 92.9186C12.392 87.937 2.23814 78.6203 0.538916 66.6925C-1.1603 54.7731 5.9184 42.5222 20.4654 32.2108C33.6116 22.8858 51.7228 15.8983 71.4669 12.5247C83.2951 10.5022 95.2643 9.89713 106.065 10.7758C113.094 11.3477 119.642 12.5247 125.527 14.2737C142.271 19.2553 152.424 28.572 154.124 40.4997C155.823 52.4191 148.744 64.6701 134.197 74.9814C121.051 84.3064 102.931 91.294 83.1956 94.6675C74.8487 96.0932 66.6013 96.8061 58.6191 96.8061ZM96.1595 11.6212C88.2353 11.6212 79.9298 12.3341 71.6824 13.7432C52.1206 17.0836 34.1835 23.9965 21.1865 33.2138C7.0374 43.2433 0.141052 55.0715 1.76567 66.5102C3.39029 77.9323 13.2375 86.8926 29.4837 91.725C35.2859 93.4491 41.7512 94.6095 48.689 95.1732C50.6535 95.3306 52.6677 95.4467 54.6902 95.5047C63.8079 95.7865 73.3236 95.0903 82.9801 93.4325C102.542 90.0921 120.471 83.1791 133.476 73.9619C147.625 63.9324 154.521 52.1041 152.897 40.6655C151.272 29.2434 141.425 20.2831 125.179 15.4507C119.377 13.7266 112.911 12.5661 105.974 12.0025C102.791 11.7538 99.5082 11.6212 96.1595 11.6212Z" fill="#FF3000"/>
<path d="M121.515 28.4224C121.457 28.4224 121.399 28.4141 121.341 28.3975C116.434 26.9387 110.897 25.9523 104.896 25.4633C104.556 25.4384 104.299 25.1317 104.324 24.7919C104.349 24.452 104.664 24.1951 104.995 24.2199C111.088 24.709 116.708 25.7119 121.698 27.2039C122.029 27.3034 122.211 27.6515 122.112 27.9748C122.029 28.2483 121.78 28.4224 121.515 28.4224Z" fill="#FF3000"/>
<path d="M49.7334 82.9634C49.7168 82.9634 49.7003 82.9634 49.6837 82.9634C43.5913 82.4744 37.9715 81.4714 32.9816 79.9794C27.6684 78.3963 15.1771 73.7545 13.9006 64.7859C12.9639 58.2211 18.2025 50.355 28.2735 43.2182C39.8033 35.0454 55.9501 28.8702 73.7463 25.8282C84.4804 23.9963 95.2808 23.4409 104.987 24.2284C105.327 24.2533 105.584 24.5599 105.559 24.8998C105.534 25.2396 105.219 25.4966 104.888 25.4717C95.2891 24.6926 84.5882 25.2479 73.9535 27.0632C56.3479 30.0721 40.3753 36.1727 28.9946 44.2461C19.3215 51.1092 14.2653 58.5361 15.1356 64.6284C16.3126 72.8841 28.2569 77.2938 33.338 78.8024C38.245 80.2612 43.782 81.2476 49.7831 81.7367C50.123 81.7615 50.3799 82.0682 50.3551 82.4081C50.3302 82.7148 50.0567 82.9634 49.7334 82.9634Z" fill="#FF3000"/>
<path d="M80.825 81.3639C80.5266 81.3639 80.2613 81.1484 80.2116 80.85C80.1536 80.5101 80.3857 80.1868 80.7172 80.1288C98.3228 77.12 114.295 71.0193 125.676 62.946C135.349 56.0828 140.405 48.6559 139.535 42.5636C139.485 42.2238 139.726 41.9088 140.066 41.8591C140.414 41.8093 140.72 42.0497 140.77 42.3895C141.707 48.9543 136.468 56.8205 126.397 63.9572C114.867 72.1301 98.7207 78.3136 80.9327 81.3473C80.8913 81.3639 80.8581 81.3639 80.825 81.3639Z" fill="#FF3000"/>
<path d="M128.13 24.0377C130.177 21.866 131.329 19.4208 131.329 16.8264C131.329 7.88266 117.619 0.629883 100.718 0.629883C83.8091 0.629883 70.1076 7.88266 70.1076 16.8264C70.1076 19.4208 71.2598 21.866 73.3071 24.0377C71.2598 26.2094 70.1076 28.6546 70.1076 31.249C70.1076 33.8434 71.2598 36.2887 73.3071 38.4603C71.2598 40.632 70.1076 43.0772 70.1076 45.6717C70.1076 54.6154 83.8174 61.8682 100.718 61.8682C117.628 61.8682 131.329 54.6154 131.329 45.6717C131.329 43.0772 130.177 40.632 128.13 38.4603C130.177 36.2887 131.329 33.8434 131.329 31.249C131.329 28.6546 130.169 26.2094 128.13 24.0377Z" fill="white"/>
<path d="M100.71 62.4816C83.4858 62.4816 69.4776 54.9387 69.4776 45.6635C69.4776 43.1353 70.4805 40.7067 72.4616 38.4521C70.4805 36.1976 69.4776 33.7772 69.4776 31.2408C69.4776 28.7044 70.4805 26.2841 72.4616 24.0295C70.4805 21.7749 69.4776 19.3545 69.4776 16.8181C69.4776 7.54288 83.4858 0 100.71 0C117.934 0 131.943 7.54288 131.943 16.8181C131.943 19.3462 130.94 21.7749 128.959 24.0295C130.94 26.2841 131.943 28.7044 131.943 31.2408C131.943 33.7772 130.94 36.1976 128.959 38.4521C130.94 40.7067 131.943 43.1271 131.943 45.6635C131.951 54.9304 117.934 62.4816 100.71 62.4816ZM100.71 1.25162C84.1738 1.25162 70.7209 8.23915 70.7209 16.8264C70.7209 19.1888 71.7405 21.4682 73.7547 23.6067C73.9785 23.8471 73.9785 24.2201 73.7547 24.4605C71.7405 26.599 70.7209 28.8785 70.7209 31.2408C70.7209 33.6031 71.7405 35.8826 73.7547 38.0211C73.9785 38.2615 73.9785 38.6345 73.7547 38.8749C71.7405 41.0134 70.7209 43.2928 70.7209 45.6552C70.7209 54.2425 84.1738 61.23 100.71 61.23C117.246 61.23 130.699 54.2425 130.699 45.6552C130.699 43.2928 129.68 41.0051 127.666 38.8749C127.442 38.6345 127.442 38.2615 127.666 38.0211C129.68 35.8826 130.699 33.6031 130.699 31.2408C130.699 28.8785 129.68 26.599 127.666 24.4605C127.442 24.2201 127.442 23.8471 127.666 23.6067C129.68 21.4682 130.699 19.1888 130.699 16.8264C130.708 8.23915 117.246 1.25162 100.71 1.25162Z" fill="#FF3000"/>
<path d="M121.515 43.7491C121.283 43.7491 121.068 43.6248 120.96 43.401C120.811 43.0943 120.935 42.7213 121.242 42.5721C127.259 39.6213 130.707 35.4934 130.707 31.2495C130.707 26.9973 127.259 22.8694 121.242 19.9269C120.935 19.7777 120.802 19.4047 120.96 19.098C121.109 18.7913 121.482 18.6587 121.789 18.8162C128.246 21.9825 131.951 26.5165 131.951 31.2578C131.951 35.999 128.246 40.533 121.789 43.6994C121.697 43.7243 121.606 43.7491 121.515 43.7491Z" fill="#FF3000"/>
<path d="M62.4486 0.629883C57.0028 0.629883 52.0461 3.71335 48.3409 8.75299C44.6358 3.71335 39.6791 0.629883 34.2333 0.629883C22.7449 0.629883 13.4282 14.3397 13.4282 31.2407C13.4282 48.1501 22.7449 61.8516 34.2333 61.8516C39.6791 61.8516 44.6358 58.7681 48.3409 53.7285C52.0461 58.7681 57.0028 61.8516 62.4486 61.8516C73.937 61.8516 83.2537 48.1418 83.2537 31.2407C83.2537 14.3397 73.937 0.629883 62.4486 0.629883Z" fill="#FFD37B"/>
<path d="M62.4486 62.4816C57.2266 62.4816 52.245 59.7463 48.3409 54.7647C44.4368 59.7463 39.4552 62.4816 34.2332 62.4816C22.4216 62.4816 12.8065 48.4734 12.8065 31.2491C12.8065 14.0248 22.4216 0.0166016 34.2332 0.0166016C39.4552 0.0166016 44.4368 2.75194 48.3409 7.73356C52.245 2.75194 57.2266 0.0166016 62.4486 0.0166016C74.2602 0.0166016 83.8753 14.0248 83.8753 31.2491C83.8753 48.4734 74.2602 62.4816 62.4486 62.4816ZM48.3326 53.1152C48.5315 53.1152 48.7139 53.2064 48.8299 53.3721C52.5599 58.4449 57.4006 61.2383 62.4403 61.2383C73.5723 61.2383 82.6237 47.7854 82.6237 31.2491C82.6237 14.7128 73.5723 1.25993 62.4403 1.25993C57.4006 1.25993 52.5682 4.05329 48.8299 9.12608C48.5979 9.44106 48.0591 9.44106 47.827 9.12608C44.097 4.05329 39.2563 1.25993 34.2166 1.25993C23.0847 1.25993 14.0332 14.7128 14.0332 31.2491C14.0332 47.7854 23.0847 61.2383 34.2166 61.2383C39.2563 61.2383 44.097 58.4449 47.827 53.3721C47.9513 53.2064 48.142 53.1152 48.3326 53.1152Z" fill="#FF3000"/>
<path d="M44.0888 16.8264C47.595 7.1864 54.4996 0.629883 62.4486 0.629883C73.937 0.629883 83.2537 14.3397 83.2537 31.2407C83.2537 48.1418 73.937 61.8516 62.4486 61.8516C54.052 61.8516 46.8241 54.5408 43.5334 44.0056" fill="#FFD37B"/>
<path d="M62.4487 62.4816C54.0686 62.4816 46.4097 55.3035 42.9366 44.2046C42.8372 43.8731 43.0195 43.525 43.3428 43.4255C43.6661 43.326 44.0225 43.5084 44.1219 43.8316C47.4209 54.4083 54.6157 61.2383 62.4487 61.2383C73.5806 61.2383 82.6321 47.7854 82.6321 31.2491C82.6321 14.7128 73.5806 1.25993 62.4487 1.25993C55.0218 1.25993 48.2167 7.31082 44.669 17.042C44.553 17.3652 44.1966 17.531 43.8733 17.415C43.55 17.2989 43.3842 16.9425 43.5003 16.6192C47.222 6.37418 54.4831 0.0166016 62.4487 0.0166016C74.2603 0.0166016 83.8754 14.0248 83.8754 31.2491C83.8754 48.4734 74.2603 62.4816 62.4487 62.4816Z" fill="#FF3000"/>
<path d="M49.6707 95.3632C58.2776 88.0444 61.2233 77.3702 56.2501 71.5219C51.277 65.6735 40.2682 66.8656 31.6613 74.1845C23.0544 81.5034 20.1087 92.1775 25.0819 98.0259C30.0551 103.874 41.0639 102.682 49.6707 95.3632Z" fill="white"/>
<path d="M34.1007 102.343C30.2463 102.343 26.8479 101.066 24.6099 98.4305C22.0652 95.4382 21.3772 91.2026 22.6786 86.4945C23.9551 81.8693 26.9971 77.3353 31.2576 73.713C35.5181 70.0908 40.4831 67.8197 45.2492 67.2975C50.0982 66.767 54.1764 68.1264 56.721 71.1186C61.9099 77.2193 58.9259 88.3098 50.0734 95.8361C45.042 100.121 39.1735 102.343 34.1007 102.343ZM47.2468 68.433C46.6418 68.433 46.0201 68.4662 45.3818 68.5325C40.8561 69.0215 36.1315 71.1932 32.0616 74.658C27.9918 78.1144 25.0824 82.4412 23.8722 86.8261C22.6869 91.128 23.2837 94.9575 25.5548 97.6265C30.2961 103.205 40.939 101.978 49.2693 94.8994C57.5997 87.8124 60.5174 77.5094 55.7761 71.9309C53.8282 69.6432 50.8442 68.433 47.2468 68.433Z" fill="#FF3000"/>
</svg>
