<svg width="155" height="110" viewBox="0 0 155 110" fill="none" xmlns="http://www.w3.org/2000/svg">
<path d="M105.864 12.1165C95.1238 11.247 83.39 11.8184 71.4491 13.8554C51.8155 17.2091 33.8131 24.1567 20.7461 33.4146C6.41212 43.575 -0.568558 55.5987 1.09587 67.2663C2.7603 78.9338 12.7469 88.0592 29.2256 92.9614C35.1132 94.7087 41.6219 95.868 48.5446 96.4311C50.5237 96.5884 52.5276 96.7043 54.573 96.7623C63.6155 97.0356 73.2212 96.3483 82.9594 94.6838C102.593 91.3301 120.595 84.3826 133.662 75.1247C147.996 64.9642 154.977 52.9406 153.313 41.273C151.648 29.6054 141.662 20.48 125.183 15.5778C119.295 13.8389 112.787 12.6796 105.864 12.1165Z" fill="#FF7F00"/>
<path d="M58.5062 97.4498C57.1813 97.4498 55.8564 97.4332 54.548 97.3918C52.511 97.3256 50.4739 97.2179 48.4948 97.0606C41.4727 96.4892 34.9309 95.3216 29.0516 93.5661C12.3245 88.5894 2.18056 79.2818 0.483009 67.3658C-1.21454 55.4581 5.85722 43.2192 20.3899 32.9179C33.5232 23.6021 51.6166 16.6214 71.3414 13.2511C83.158 11.2306 95.1154 10.6261 105.905 11.5039C112.927 12.0753 119.469 13.2511 125.348 14.9984C142.076 19.9751 152.219 29.2827 153.917 41.1987C155.615 53.1064 148.543 65.3453 134.01 75.6466C120.877 84.9624 102.775 91.9431 83.0586 95.3133C74.7199 96.7376 66.4806 97.4498 58.5062 97.4498ZM96.0097 12.3485C88.0933 12.3485 79.796 13.0607 71.5567 14.4684C52.0141 17.8055 34.0946 24.7117 21.1104 33.9199C6.97512 43.9396 0.0855355 55.7562 1.70856 67.1836C3.33159 78.5945 13.1691 87.546 29.3994 92.3737C35.1959 94.0961 41.6549 95.2554 48.5859 95.8185C50.5484 95.9758 52.5606 96.0917 54.5811 96.1497C63.69 96.4313 73.1963 95.7357 82.8433 94.0795C102.386 90.7424 120.297 83.8362 133.29 74.628C147.425 64.6083 154.315 52.7917 152.691 41.3643C151.068 29.9534 141.231 21.0019 125.001 16.1742C119.204 14.4518 112.745 13.2925 105.814 12.7294C102.634 12.481 99.3552 12.3485 96.0097 12.3485Z" fill="#FF3000"/>
<path d="M121.341 29.1331C121.283 29.1331 121.225 29.1248 121.167 29.1083C116.265 27.6508 110.733 26.6654 104.738 26.1769C104.398 26.152 104.141 25.8457 104.166 25.5061C104.191 25.1666 104.506 24.9099 104.837 24.9348C110.923 25.4233 116.538 26.4253 121.523 27.9158C121.854 28.0152 122.036 28.363 121.937 28.6859C121.854 28.9592 121.606 29.1331 121.341 29.1331Z" fill="#FF3000"/>
<path d="M49.6292 83.6208C49.6126 83.6208 49.5961 83.6208 49.5795 83.6208C43.4932 83.1322 37.8788 82.1303 32.8938 80.6397C27.5859 79.0581 15.1068 74.4209 13.8315 65.4611C12.8958 58.9027 18.1292 51.0443 28.1903 43.9146C39.7089 35.7498 55.8398 29.5806 73.6185 26.5416C84.3421 24.7115 95.1319 24.1567 104.829 24.9434C105.168 24.9682 105.425 25.2746 105.4 25.6141C105.375 25.9536 105.061 26.2103 104.729 26.1855C95.1402 25.4071 84.4498 25.9619 73.8256 27.7754C56.2372 30.7813 40.2802 36.8759 28.9108 44.9414C19.2471 51.7979 14.1959 59.2174 15.0654 65.3038C16.2412 73.5514 28.1738 77.9567 33.2499 79.4638C38.1521 80.9213 43.6836 81.9067 49.6789 82.3952C50.0184 82.4201 50.2751 82.7265 50.2503 83.066C50.2254 83.3724 49.9522 83.6208 49.6292 83.6208Z" fill="#FF3000"/>
<path d="M80.6903 82.0229C80.3922 82.0229 80.1272 81.8076 80.0775 81.5094C80.0195 81.1699 80.2514 80.847 80.5826 80.789C98.1709 77.7831 114.128 71.6885 125.497 63.623C135.161 56.7666 140.212 49.347 139.343 43.2607C139.293 42.9212 139.533 42.6065 139.873 42.5568C140.221 42.5071 140.527 42.7473 140.577 43.0868C141.512 49.6451 136.279 57.5036 126.218 64.6333C114.699 72.7981 98.5684 78.9755 80.7979 82.0063C80.7565 82.0229 80.7234 82.0229 80.6903 82.0229Z" fill="#FF3000"/>
<path d="M127.949 24.753C129.994 22.5834 131.145 20.1406 131.145 17.5488C131.145 8.61383 117.449 1.36816 100.564 1.36816C83.6714 1.36816 69.9833 8.61383 69.9833 17.5488C69.9833 20.1406 71.1343 22.5834 73.1796 24.753C71.1343 26.9226 69.9833 29.3654 69.9833 31.9573C69.9833 34.5491 71.1343 36.9919 73.1796 39.1615C71.1343 41.3311 69.9833 43.7739 69.9833 46.3658C69.9833 55.3007 83.6796 62.5463 100.564 62.5463C117.457 62.5463 131.145 55.3007 131.145 46.3658C131.145 43.7739 129.994 41.3311 127.949 39.1615C129.994 36.9919 131.145 34.5491 131.145 31.9573C131.145 29.3654 129.986 26.9226 127.949 24.753Z" fill="white"/>
<path d="M100.556 63.1591C83.3485 63.1591 69.354 55.6236 69.354 46.3574C69.354 43.8318 70.356 41.4055 72.3351 39.1532C70.356 36.9008 69.354 34.4828 69.354 31.9489C69.354 29.415 70.356 26.997 72.3351 24.7447C70.356 22.4923 69.354 20.0743 69.354 17.5404C69.354 8.27425 83.3485 0.73877 100.556 0.73877C117.763 0.73877 131.758 8.27425 131.758 17.5404C131.758 20.066 130.756 22.4923 128.777 24.7447C130.756 26.997 131.758 29.415 131.758 31.9489C131.758 34.4828 130.756 36.9008 128.777 39.1532C130.756 41.4055 131.758 43.8235 131.758 46.3574C131.766 55.6153 117.763 63.1591 100.556 63.1591ZM100.556 1.98916C84.0358 1.98916 70.5961 8.96984 70.5961 17.5487C70.5961 19.9087 71.6146 22.1859 73.6269 24.3223C73.8504 24.5625 73.8504 24.9351 73.6269 25.1753C71.6146 27.3117 70.5961 29.5889 70.5961 31.9489C70.5961 34.3089 71.6146 36.5861 73.6269 38.7226C73.8504 38.9627 73.8504 39.3353 73.6269 39.5755C71.6146 41.7119 70.5961 43.9891 70.5961 46.3491C70.5961 54.928 84.0358 61.9087 100.556 61.9087C117.076 61.9087 130.516 54.928 130.516 46.3491C130.516 43.9891 129.497 41.7036 127.485 39.5755C127.261 39.3353 127.261 38.9627 127.485 38.7226C129.497 36.5861 130.516 34.3089 130.516 31.9489C130.516 29.5889 129.497 27.3117 127.485 25.1753C127.261 24.9351 127.261 24.5625 127.485 24.3223C129.497 22.1859 130.516 19.9087 130.516 17.5487C130.524 8.96984 117.076 1.98916 100.556 1.98916Z" fill="#FF3000"/>
<path d="M121.341 44.4448C121.109 44.4448 120.893 44.3206 120.786 44.097C120.637 43.7906 120.761 43.418 121.067 43.2689C127.079 40.321 130.524 36.1972 130.524 31.9574C130.524 27.7094 127.079 23.5856 121.067 20.6459C120.761 20.4969 120.628 20.1242 120.786 19.8179C120.935 19.5115 121.307 19.379 121.614 19.5363C128.064 22.6996 131.766 27.2291 131.766 31.9657C131.766 36.7023 128.064 41.2319 121.614 44.3951C121.523 44.42 121.432 44.4448 121.341 44.4448Z" fill="#FF3000"/>
<path d="M62.332 1.36768C56.8915 1.36768 51.9396 4.44812 48.2381 9.48281C44.5366 4.44812 39.5848 1.36768 34.1443 1.36768C22.6672 1.36768 13.3596 15.064 13.3596 31.9485C13.3596 48.8412 22.6672 62.5293 34.1443 62.5293C39.5848 62.5293 44.5366 59.4489 48.2381 54.4142C51.9396 59.4489 56.8915 62.5293 62.332 62.5293C73.8091 62.5293 83.1167 48.8329 83.1167 31.9485C83.1167 15.064 73.8091 1.36768 62.332 1.36768Z" fill="#FFD37B"/>
<path d="M62.3319 63.1591C57.1151 63.1591 52.1383 60.4265 48.2381 55.4497C44.3379 60.4265 39.3611 63.1591 34.1443 63.1591C22.3442 63.1591 12.7385 49.1646 12.7385 31.9572C12.7385 14.7498 22.3442 0.755371 34.1443 0.755371C39.3611 0.755371 44.3379 3.48802 48.2381 8.46475C52.1383 3.48802 57.1151 0.755371 62.3319 0.755371C74.132 0.755371 83.7377 14.7498 83.7377 31.9572C83.7377 49.1646 74.132 63.1591 62.3319 63.1591ZM48.2298 53.8019C48.4286 53.8019 48.6107 53.8929 48.7267 54.0586C52.453 59.1264 57.289 61.917 62.3237 61.917C73.4447 61.917 82.4873 48.4773 82.4873 31.9572C82.4873 15.4371 73.4447 1.99748 62.3237 1.99748C57.289 1.99748 52.4613 4.78809 48.7267 9.85591C48.4948 10.1706 47.9566 10.1706 47.7247 9.85591C43.9984 4.78809 39.1624 1.99748 34.1277 1.99748C23.0067 1.99748 13.9641 15.4371 13.9641 31.9572C13.9641 48.4773 23.0067 61.917 34.1277 61.917C39.1624 61.917 43.9984 59.1264 47.7247 54.0586C47.8489 53.8929 48.0394 53.8019 48.2298 53.8019Z" fill="#FF3000"/>
<path d="M43.9902 17.5483C47.493 7.91776 54.3909 1.36768 62.3321 1.36768C73.8092 1.36768 83.1168 15.064 83.1168 31.9485C83.1168 48.8329 73.8092 62.5293 62.3321 62.5293C53.9437 62.5293 46.7229 55.2257 43.4354 44.7008" fill="#FFD37B"/>
<path d="M62.332 63.1591C53.9602 63.1591 46.3088 55.988 42.8391 44.9001C42.7398 44.5688 42.922 44.221 43.2449 44.1217C43.5679 44.0223 43.9239 44.2045 44.0233 44.5274C47.319 55.0937 54.5067 61.917 62.332 61.917C73.4531 61.917 82.4957 48.4773 82.4957 31.9572C82.4957 15.4371 73.4531 1.99748 62.332 1.99748C54.9125 1.99748 48.114 8.04243 44.5698 17.764C44.4539 18.087 44.0978 18.2526 43.7749 18.1367C43.4519 18.0207 43.2863 17.6647 43.4022 17.3417C47.1203 7.10671 54.3742 0.755371 62.332 0.755371C74.1321 0.755371 83.7378 14.7498 83.7378 31.9572C83.7378 49.1646 74.1321 63.1591 62.332 63.1591Z" fill="#FF3000"/>
<path d="M49.5666 96.0088C58.165 88.6971 61.1078 78.0334 56.1395 72.1908C51.1712 66.3482 40.1732 67.5391 31.5748 74.8508C22.9764 82.1625 20.0336 92.8262 25.0019 98.6688C29.9702 104.511 40.9681 103.32 49.5666 96.0088Z" fill="white"/>
<path d="M34.0118 102.981C30.1613 102.981 26.7662 101.706 24.5304 99.0727C21.9882 96.0833 21.3009 91.8519 22.6009 87.1484C23.8762 82.5278 26.9152 77.9982 31.1715 74.3795C35.4278 70.7608 40.388 68.4919 45.1494 67.9702C49.9937 67.4402 54.0678 68.7983 56.61 71.7876C61.7937 77.8823 58.8127 88.9619 49.9688 96.4808C44.9424 100.762 39.0796 102.981 34.0118 102.981ZM47.1451 69.1047C46.5406 69.1047 45.9195 69.1378 45.2819 69.204C40.7606 69.6926 36.0406 71.8621 31.9748 75.3235C27.9089 78.7766 25.0024 83.0991 23.7934 87.4796C22.6092 91.7774 23.2054 95.6031 25.4744 98.2695C30.2109 103.842 40.8434 102.617 49.1656 95.5451C57.4877 88.4651 60.4026 78.1721 55.666 72.5991C53.72 70.3137 50.7389 69.1047 47.1451 69.1047Z" fill="#FF3000"/>
</svg>
