<svg width="20" height="19" viewBox="0 0 20 19" fill="none" xmlns="http://www.w3.org/2000/svg">
<path d="M9.11145 0.720964C9.48404 -0.000674665 10.516 -0.00067389 10.8886 0.720965L13.1615 5.12316C13.3105 5.41188 13.5906 5.61018 13.9124 5.65488L18.918 6.35013C19.7522 6.466 20.0783 7.49812 19.4621 8.07226L15.8989 11.3923C15.6502 11.624 15.5363 11.966 15.5963 12.3005L16.4453 17.0321C16.5908 17.8431 15.7482 18.4722 15.012 18.1023L10.449 15.8092C10.1665 15.6673 9.8335 15.6673 9.55098 15.8092L4.98803 18.1023C4.25185 18.4722 3.40921 17.8431 3.55473 17.0321L4.40372 12.3005C4.46374 11.966 4.34978 11.624 4.10114 11.3923L0.537909 8.07226C-0.0782835 7.49812 0.247826 6.466 1.08203 6.35013L6.08757 5.65488C6.40941 5.61018 6.68947 5.41188 6.83854 5.12316L9.11145 0.720964Z" fill="#FF7F00"/>
</svg>
