<svg width="204" height="61" viewBox="0 0 204 61" fill="none" xmlns="http://www.w3.org/2000/svg">
<path d="M58.7088 7.01229C52.7393 6.52902 46.2174 6.8466 39.5805 7.97883C28.6679 9.84287 18.6619 13.7044 11.399 18.8501C3.43198 24.4974 -0.447989 31.1804 0.477126 37.6654C1.40224 44.1504 6.95294 49.2224 16.112 51.9471C19.3845 52.9183 23.0021 53.5627 26.8498 53.8756C27.9499 53.9631 29.0637 54.0275 30.2005 54.0597C35.2265 54.2116 40.5655 53.8296 45.9781 52.9045C56.8908 51.0404 66.8968 47.1789 74.1596 42.0332C82.1267 36.3859 86.0066 29.7029 85.0815 23.2179C84.1564 16.7329 78.6057 11.6609 69.4466 8.93616C66.1742 7.96962 62.5566 7.32526 58.7088 7.01229Z" fill="#FF7F00"/>
<path d="M32.3878 54.4396C31.6514 54.4396 30.915 54.4304 30.1878 54.4074C29.0556 54.3705 27.9234 54.3107 26.8233 54.2233C22.9204 53.9057 19.2843 53.2567 16.0165 52.281C6.71932 49.5148 1.08118 44.3415 0.137652 37.7185C-0.805875 31.1 3.12472 24.2974 11.2022 18.5718C18.5019 13.3939 28.5585 9.51393 39.5218 7.64069C46.1817 6.50385 52.6483 6.17707 58.7329 6.66954C62.6359 6.98712 66.2719 7.64069 69.5397 8.61183C78.8369 11.378 84.4751 16.5513 85.4186 23.1743C86.3621 29.7928 82.4315 36.5954 74.354 42.321C67.0544 47.4989 56.9978 51.3789 46.0344 53.2521C41.3951 54.0438 36.8155 54.4396 32.3878 54.4396ZM53.2283 7.139C48.8282 7.139 44.2164 7.53483 39.6369 8.31726C28.7748 10.1721 18.8149 14.0106 11.598 19.1287C3.74146 24.6978 -0.0878692 31.2657 0.818837 37.6172C1.72094 43.9595 7.18879 48.9349 16.2098 51.6182C19.4316 52.5755 23.0216 53.2199 26.874 53.5329C27.9648 53.6203 29.0832 53.6848 30.2062 53.717C35.2644 53.8735 40.5482 53.4869 45.9148 52.5663C56.7768 50.7115 66.7368 46.873 73.9536 41.7549C81.8102 36.1858 85.6395 29.6179 84.7374 23.2664C83.8353 16.9241 78.3675 11.9533 69.3464 9.26539C66.1247 8.30806 62.5347 7.6637 58.6823 7.35072C56.9149 7.21265 55.0923 7.139 53.2283 7.139Z" fill="#FF3000"/>
<path d="M67.3073 16.4702C67.275 16.4702 67.2428 16.4656 67.2106 16.4564C64.4859 15.6463 61.4114 15.0986 58.0791 14.8271C57.8904 14.8132 57.7477 14.6429 57.7615 14.4542C57.7754 14.2655 57.941 14.1229 58.1344 14.1367C61.5172 14.4082 64.6378 14.9651 67.4085 15.7936C67.5926 15.8488 67.6939 16.0421 67.6386 16.2216C67.5926 16.3735 67.4545 16.4702 67.3073 16.4702Z" fill="#FF3000"/>
<path d="M27.4543 46.7553C27.4451 46.7553 27.4359 46.7553 27.4267 46.7553C24.0438 46.4837 20.9233 45.9268 18.1525 45.0984C15.2023 44.2193 8.26621 41.6418 7.55742 36.6618C7.03733 33.0166 9.94615 28.6488 15.5383 24.686C21.9404 20.1478 30.9062 16.7189 40.7834 15.0298C46.7437 14.0126 52.7454 13.7042 58.1304 14.1415C58.3191 14.1553 58.4618 14.3256 58.448 14.5143C58.4342 14.703 58.2639 14.8457 58.0752 14.8319C52.7454 14.3992 46.8035 14.7076 40.8984 15.7156C31.118 17.3863 22.2534 20.7738 15.9341 25.2567C10.5629 29.0676 7.75533 33.1915 8.2386 36.5744C8.89217 41.1586 15.5245 43.6071 18.3458 44.4448C21.0706 45.2548 24.1451 45.8025 27.4773 46.0741C27.666 46.0879 27.8087 46.2582 27.7949 46.4469C27.7811 46.6172 27.6338 46.7553 27.4543 46.7553Z" fill="#FF3000"/>
<path d="M44.713 45.8672C44.5473 45.8672 44.4 45.7475 44.3724 45.5818C44.3402 45.3931 44.469 45.2136 44.6531 45.1814C54.429 43.5107 63.2981 40.1232 69.6175 35.6403C74.9887 31.8294 77.7962 27.7055 77.313 24.3226C77.2853 24.1339 77.4188 23.959 77.6075 23.9314C77.7962 23.9037 77.9711 24.0372 77.9987 24.2259C78.5188 27.8712 75.61 32.239 70.0179 36.2018C63.6157 40.7399 54.6499 44.1734 44.7728 45.858C44.7544 45.8672 44.7314 45.8672 44.713 45.8672Z" fill="#FF3000"/>
<path d="M70.9802 14.0348C72.117 12.8289 72.7568 11.4711 72.7568 10.0305C72.7568 5.06436 65.1441 1.03711 55.7595 1.03711C46.3702 1.03711 38.7622 5.06436 38.7622 10.0305C38.7622 11.4711 39.402 12.8289 40.5388 14.0348C39.402 15.2406 38.7622 16.5984 38.7622 18.039C38.7622 19.4796 39.402 20.8374 40.5388 22.0432C39.402 23.2491 38.7622 24.6069 38.7622 26.0475C38.7622 31.0136 46.3748 35.0409 55.7595 35.0409C65.1487 35.0409 72.7568 31.0136 72.7568 26.0475C72.7568 24.6069 72.117 23.2491 70.9802 22.0432C72.117 20.8374 72.7568 19.4796 72.7568 18.039C72.7568 16.5984 72.117 15.2406 70.9802 14.0348Z" fill="white"/>
<path d="M55.7596 35.3817C46.1954 35.3817 38.4171 31.1933 38.4171 26.043C38.4171 24.6393 38.974 23.2907 40.074 22.0388C38.974 20.7869 38.4171 19.443 38.4171 18.0346C38.4171 16.6262 38.974 15.2822 40.074 14.0303C38.974 12.7784 38.4171 11.4345 38.4171 10.0261C38.4171 4.87583 46.1954 0.6875 55.7596 0.6875C65.3237 0.6875 73.1021 4.87583 73.1021 10.0261C73.1021 11.4299 72.5451 12.7784 71.4451 14.0303C72.5451 15.2822 73.1021 16.6262 73.1021 18.0346C73.1021 19.4384 72.5451 20.7869 71.4451 22.0388C72.5451 23.2907 73.1021 24.6347 73.1021 26.043C73.1021 31.1887 65.3237 35.3817 55.7596 35.3817ZM55.7596 1.38249C46.5775 1.38249 39.1075 5.26245 39.1075 10.0307C39.1075 11.3424 39.6736 12.6081 40.792 13.7956C40.9163 13.9291 40.9163 14.1362 40.792 14.2697C39.6736 15.4571 39.1075 16.7228 39.1075 18.0346C39.1075 19.3463 39.6736 20.612 40.792 21.7995C40.9163 21.9329 40.9163 22.1401 40.792 22.2735C39.6736 23.461 39.1075 24.7267 39.1075 26.0384C39.1075 30.8067 46.5775 34.6867 55.7596 34.6867C64.9417 34.6867 72.4117 30.8067 72.4117 26.0384C72.4117 24.7267 71.8455 23.4564 70.7271 22.2735C70.6029 22.1401 70.6029 21.9329 70.7271 21.7995C71.8455 20.612 72.4117 19.3463 72.4117 18.0346C72.4117 16.7228 71.8455 15.4525 70.7271 14.2697C70.6029 14.1362 70.6029 13.9291 70.7271 13.7956C71.8455 12.6081 72.4117 11.3424 72.4117 10.0307C72.4117 5.26245 64.9417 1.38249 55.7596 1.38249Z" fill="#FF3000"/>
<path d="M67.308 24.9811C67.1792 24.9811 67.0595 24.9121 66.9997 24.7878C66.9168 24.6175 66.9858 24.4104 67.1561 24.3276C70.4976 22.6891 72.4123 20.397 72.4123 18.0405C72.4123 15.684 70.4976 13.3873 67.1561 11.7534C66.9858 11.6705 66.9122 11.4634 66.9997 11.2931C67.0825 11.1228 67.2896 11.0492 67.4599 11.1366C71.0453 12.8948 73.1027 15.4124 73.1027 18.0451C73.1027 20.6777 71.0453 23.1953 67.4599 24.9535C67.4093 24.9673 67.3587 24.9811 67.308 24.9811Z" fill="#FF3000"/>
<path d="M34.5089 1.03809C31.485 1.03809 28.7327 2.75024 26.6753 5.5486C24.618 2.75024 21.8656 1.03809 18.8418 1.03809C12.4626 1.03809 7.28931 8.65073 7.28931 18.0354C7.28931 27.4246 12.4626 35.0326 18.8418 35.0326C21.8656 35.0326 24.618 33.3205 26.6753 30.5221C28.7327 33.3205 31.485 35.0326 34.5089 35.0326C40.888 35.0326 46.0613 27.42 46.0613 18.0354C46.0613 8.65073 40.8926 1.03809 34.5089 1.03809Z" fill="#FFD37B"/>
<path d="M34.5082 35.3812C31.6086 35.3812 28.8425 33.8624 26.6747 31.0962C24.5069 33.8624 21.7407 35.3812 18.8411 35.3812C12.2779 35.3812 6.94348 27.6029 6.94348 18.0388C6.94348 8.47463 12.2825 0.696289 18.8411 0.696289C21.7407 0.696289 24.5069 2.21514 26.6747 4.98128C28.8425 2.21514 31.6086 0.696289 34.5082 0.696289C41.0715 0.696289 46.4059 8.47463 46.4059 18.0388C46.4059 27.6029 41.0715 35.3812 34.5082 35.3812ZM26.6747 30.1803C26.7851 30.1803 26.8864 30.231 26.9508 30.323C29.022 33.1398 31.7099 34.6909 34.5082 34.6909C40.6895 34.6909 45.7155 27.2209 45.7155 18.0388C45.7155 8.85664 40.6895 1.38667 34.5082 1.38667C31.7099 1.38667 29.0266 2.93774 26.9508 5.75451C26.822 5.92941 26.5228 5.92941 26.3939 5.75451C24.3228 2.93774 21.6349 1.38667 18.8365 1.38667C12.6553 1.38667 7.62926 8.85664 7.62926 18.0388C7.62926 27.2209 12.6553 34.6909 18.8365 34.6909C21.6349 34.6909 24.3182 33.1398 26.3939 30.323C26.4584 30.231 26.5642 30.1803 26.6747 30.1803Z" fill="#FF3000"/>
<path d="M24.315 10.0315C26.2619 4.67872 30.0958 1.03809 34.5097 1.03809C40.8888 1.03809 46.0621 8.65073 46.0621 18.0354C46.0621 27.42 40.8888 35.0326 34.5097 35.0326C29.8473 35.0326 25.8338 30.9732 24.0066 25.1233" fill="#FFD37B"/>
<path d="M34.5087 35.3812C29.8555 35.3812 25.6027 31.3954 23.6743 25.2326C23.619 25.0485 23.7203 24.8552 23.8998 24.7999C24.0793 24.7447 24.2726 24.846 24.3324 25.0255C26.1688 30.8983 30.1593 34.6909 34.5087 34.6909C40.6899 34.6909 45.7159 27.2209 45.7159 18.0388C45.7159 8.85664 40.6899 1.38667 34.5087 1.38667C30.3848 1.38667 26.6061 4.74655 24.6408 10.15C24.5764 10.3295 24.3784 10.4215 24.1989 10.3571C24.0194 10.2926 23.9274 10.0947 23.9918 9.91523C26.0584 4.22646 30.0902 0.696289 34.5087 0.696289C41.072 0.696289 46.4063 8.47463 46.4063 18.0388C46.4063 27.6029 41.072 35.3812 34.5087 35.3812Z" fill="#FF3000"/>
<path d="M27.4129 53.6398C32.192 49.5758 33.8277 43.6488 31.0662 40.4014C28.3048 37.1539 22.1919 37.8159 17.4128 41.8798C12.6337 45.9438 10.998 51.8708 13.7594 55.1182C16.5209 58.3657 22.6337 57.7037 27.4129 53.6398Z" fill="white"/>
<path d="M18.7688 57.514C16.6286 57.514 14.7416 56.8052 13.4989 55.3416C10.6177 51.9541 12.2746 45.7959 17.1901 41.6168C22.1057 37.4376 28.4526 36.7933 31.3292 40.1808C32.7422 41.8423 33.1242 44.1942 32.4016 46.8085C31.6928 49.3767 30.0037 51.8943 27.638 53.9056C24.8442 56.2805 21.5902 57.514 18.7688 57.514ZM26.0593 38.6803C23.4082 38.6803 20.3107 39.8678 17.6366 42.1414C13.011 46.0766 11.3909 51.7976 14.0236 54.8952C16.6609 57.9927 22.566 57.3115 27.1915 53.3809C29.4514 51.4617 31.0669 49.0591 31.7343 46.6244C32.3924 44.2356 32.061 42.1092 30.7999 40.6272C29.6907 39.3155 27.997 38.6803 26.0593 38.6803Z" fill="#FF3000"/>
<path d="M111.055 31.6583C110.945 34.1207 110.756 36.1688 110.498 38.6312C110.236 41.425 108.671 43.625 105.578 43.625C102.412 43.625 100.879 41.425 100.621 38.6312C99.8755 31.5479 99.8755 23.7557 100.621 16.7138C100.883 13.9569 102.412 11.7568 105.578 11.7568C107.368 11.7568 108.634 12.4656 109.453 13.5841C111.617 16.677 113.738 21.3026 115.492 25.1779C115.754 25.6612 116.127 25.6612 116.385 25.1779C118.138 21.3026 120.223 16.677 122.423 13.5841C123.206 12.4656 124.513 11.7568 126.299 11.7568C129.465 11.7568 130.957 13.9569 131.256 16.7138C131.965 23.7603 131.965 31.5525 131.256 38.6312C130.957 41.425 129.465 43.625 126.299 43.625C123.206 43.625 121.641 41.425 121.379 38.6312C121.116 36.1688 120.932 34.1207 120.822 31.6583C121.641 29.8679 122.239 28.5286 122.686 26.8486C122.911 25.9926 122.014 25.8039 121.83 26.5127C120.974 29.196 119.556 32.1784 118.249 34.5625C117.204 36.4634 114.668 36.4634 113.628 34.5625C112.325 32.1784 110.908 29.196 110.047 26.5127C109.858 25.8039 108.966 25.9926 109.191 26.8486C109.642 28.5286 110.236 29.8679 111.055 31.6583Z" fill="#423227"/>
<path d="M135.104 37.8863C134.731 34.7197 134.657 31.3645 134.657 27.6364C134.657 23.9083 134.731 20.553 135.104 17.4233C135.624 12.6504 141.442 11.4215 146.808 11.3847C152.474 11.3479 158.402 12.3927 158.402 18.3576C158.402 20.7785 157.509 21.3401 154.564 20.5576C153.592 20.2953 152.437 20.1112 151.507 20.1112C148.824 20.1112 146.997 20.5208 145.395 21.156C144.613 21.4551 144.875 22.5367 145.731 22.2007C149.013 21.0455 153.859 20.935 155.871 22.1639C157.587 23.2455 158.407 24.8472 158.407 27.6456C158.407 30.4393 157.587 32.0824 155.871 33.1272C153.859 34.3929 149.013 34.2825 145.731 33.0904C144.875 32.7912 144.613 33.836 145.395 34.1352C146.997 34.7704 148.824 35.1432 151.507 35.1432C152.437 35.1432 153.597 34.9959 154.564 34.7335C157.509 33.9879 158.402 34.508 158.402 36.8967C158.402 42.8617 152.474 43.9433 146.808 43.9064C141.442 43.8512 135.624 42.5809 135.104 37.8863Z" fill="#423227"/>
<path d="M166.567 16.9727C169.586 16.9727 171.487 18.9472 171.487 22.0447C171.487 24.6543 169.397 26.5184 166.567 26.5184C163.621 26.5184 161.573 24.6543 161.573 22.0447C161.573 18.9472 163.584 16.9727 166.567 16.9727ZM166.567 30.3201C169.586 30.3201 171.487 32.3314 171.487 35.4289C171.487 38.0018 169.397 39.9026 166.567 39.9026C163.621 39.9026 161.573 38.0018 161.573 35.4289C161.573 32.3314 163.584 30.3201 166.567 30.3201Z" fill="#423227"/>
<path d="M174.323 27.6364C174.323 17.6074 178.235 11.3848 189.161 11.3848C200.12 11.3848 204 17.612 204 27.6364C204 33.5277 202.099 38.1119 198.597 40.9056C199.531 41.4257 200.571 42.3232 201.018 43.3266C201.91 45.3011 201.689 47.6116 198.969 48.9923C194.049 51.5283 189.985 44.9651 188.83 41.0529C188.641 40.5696 187.937 40.7906 188.121 41.3521C188.347 42.2081 188.793 43.2529 189.166 43.8881C178.87 43.8881 174.323 37.6608 174.323 27.6364ZM189.088 30.467C190.132 28.9758 190.39 26.9644 190.432 25.1004C190.468 24.2443 189.166 24.2812 189.129 24.8749C189.019 26.7021 188.683 28.267 187.827 30.0574C187.445 30.5775 188.6 31.1022 189.088 30.467Z" fill="#423227"/>
</svg>
