<svg width="247" height="74" viewBox="0 0 247 74" fill="none" xmlns="http://www.w3.org/2000/svg">
<path d="M71.0837 8.63253C63.8559 8.0474 55.9593 8.43191 47.9235 9.8028C34.7106 12.0598 22.5955 16.7353 13.8017 22.9656C4.15538 29.8033 -0.54243 37.8949 0.577686 45.7468C1.6978 53.5988 8.4185 59.7399 19.5082 63.039C23.4704 64.2148 27.8506 64.995 32.5094 65.3739C33.8412 65.4798 35.1898 65.5578 36.5663 65.5968C42.6517 65.7807 49.116 65.3182 55.6696 64.1981C68.8825 61.9411 80.9976 57.2656 89.7913 51.0353C99.4377 44.1976 104.135 36.106 103.015 28.2541C101.895 20.4021 95.1745 14.261 84.0848 10.9619C80.1226 9.79166 75.7425 9.01148 71.0837 8.63253Z" fill="#FF7F00"/>
<path d="M39.2147 66.059C38.3231 66.059 37.4314 66.0479 36.5509 66.02C35.18 65.9754 33.8092 65.903 32.4773 65.7971C27.7516 65.4126 23.3492 64.6268 19.3925 63.4454C8.13565 60.0962 1.30907 53.8325 0.166666 45.8134C-0.97574 37.7998 3.78336 29.5633 13.5635 22.6309C22.4018 16.3616 34.5782 11.6638 47.8524 9.39566C55.9161 8.0192 63.7458 7.62354 71.1129 8.21982C75.8386 8.60433 80.241 9.39566 84.1976 10.5715C95.4545 13.9207 102.281 20.1844 103.423 28.2036C104.566 36.2171 99.8068 44.4536 90.0267 51.3861C81.1884 57.6554 69.012 62.3532 55.7378 64.6213C50.1205 65.5798 44.5756 66.059 39.2147 66.059ZM64.4479 8.78823C59.1204 8.78823 53.5366 9.26749 47.9917 10.2148C34.8401 12.4607 22.7807 17.1083 14.0427 23.3052C4.5301 30.0481 -0.106391 38.0004 0.991434 45.6908C2.08369 53.37 8.70407 59.3941 19.6266 62.643C23.5275 63.8021 27.8742 64.5823 32.5386 64.9612C33.8593 65.0671 35.2135 65.1451 36.5732 65.1841C42.6976 65.3736 49.0951 64.9055 55.5929 63.7909C68.7445 61.5451 80.8039 56.8975 89.5419 50.7006C99.0545 43.9576 103.691 36.0054 102.599 28.315C101.506 20.6358 94.8861 14.6173 83.9636 11.3628C80.0627 10.2037 75.716 9.42352 71.0516 9.04458C68.9117 8.87739 66.7049 8.78823 64.4479 8.78823Z" fill="#FF3000"/>
<path d="M81.4945 20.0838C81.4555 20.0838 81.4164 20.0782 81.3774 20.0671C78.0784 19.0863 74.3558 18.4231 70.3212 18.0943C70.0927 18.0776 69.9199 17.8714 69.9367 17.643C69.9534 17.4145 70.154 17.2417 70.3881 17.2584C74.484 17.5872 78.2623 18.2615 81.6171 19.2646C81.84 19.3315 81.9626 19.5655 81.8957 19.7829C81.84 19.9668 81.6728 20.0838 81.4945 20.0838Z" fill="#FF3000"/>
<path d="M33.2413 56.7525C33.2301 56.7525 33.219 56.7525 33.2079 56.7525C29.1119 56.4237 25.3336 55.7494 21.9788 54.7463C18.4067 53.682 10.0086 50.5612 9.15043 44.5316C8.52072 40.118 12.0427 34.8295 18.8135 30.0313C26.5652 24.5366 37.4208 20.385 49.3799 18.3398C56.5965 17.1082 63.8634 16.7348 70.3834 17.2643C70.6119 17.281 70.7847 17.4872 70.768 17.7156C70.7512 17.9441 70.5451 18.1169 70.3166 18.1002C63.8634 17.5763 56.669 17.9497 49.5192 19.1701C37.6772 21.193 26.9441 25.2945 19.2928 30.7224C12.7894 35.3366 9.39007 40.3297 9.9752 44.4257C10.7665 49.9761 18.7968 52.9408 22.2129 53.955C25.5119 54.9358 29.2345 55.599 33.2691 55.9278C33.4976 55.9445 33.6704 56.1507 33.6537 56.3791C33.6369 56.5853 33.4586 56.7525 33.2413 56.7525Z" fill="#FF3000"/>
<path d="M54.1377 55.6772C53.9371 55.6772 53.7588 55.5323 53.7253 55.3317C53.6863 55.1032 53.8424 54.8859 54.0653 54.8469C65.9017 52.824 76.6403 48.7225 84.2917 43.2947C90.795 38.6804 94.1944 33.6873 93.6092 29.5913C93.5758 29.3629 93.7374 29.1511 93.9659 29.1177C94.1944 29.0842 94.4061 29.2458 94.4396 29.4743C95.0693 33.8879 91.5474 39.1764 84.7765 43.9745C77.0249 49.4692 66.1692 53.6265 54.2102 55.6661C54.1879 55.6772 54.16 55.6772 54.1377 55.6772Z" fill="#FF3000"/>
<path d="M85.9418 17.1363C87.3182 15.6762 88.0929 14.0323 88.0929 12.288C88.0929 6.27506 78.8756 1.39893 67.5128 1.39893C56.1445 1.39893 46.9328 6.27506 46.9328 12.288C46.9328 14.0323 47.7074 15.6762 49.0838 17.1363C47.7074 18.5963 46.9328 20.2403 46.9328 21.9845C46.9328 23.7288 47.7074 25.3727 49.0838 26.8328C47.7074 28.2929 46.9328 29.9368 46.9328 31.6811C46.9328 37.694 56.15 42.5702 67.5128 42.5702C78.8811 42.5702 88.0929 37.694 88.0929 31.6811C88.0929 29.9368 87.3182 28.2929 85.9418 26.8328C87.3182 25.3727 88.0929 23.7288 88.0929 21.9845C88.0929 20.2403 87.3182 18.5963 85.9418 17.1363Z" fill="white"/>
<path d="M67.5128 42.9827C55.9327 42.9827 46.5149 37.9115 46.5149 31.6757C46.5149 29.976 47.1891 28.3432 48.521 26.8274C47.1891 25.3116 46.5149 23.6844 46.5149 21.9792C46.5149 20.2739 47.1891 18.6467 48.521 17.1309C47.1891 15.6151 46.5149 13.9879 46.5149 12.2826C46.5149 6.04675 55.9327 0.975586 67.5128 0.975586C79.093 0.975586 88.5109 6.04675 88.5109 12.2826C88.5109 13.9823 87.8365 15.6151 86.5047 17.1309C87.8365 18.6467 88.5109 20.2739 88.5109 21.9792C88.5109 23.6788 87.8365 25.3116 86.5047 26.8274C87.8365 28.3432 88.5109 29.9704 88.5109 31.6757C88.5109 37.906 79.093 42.9827 67.5128 42.9827ZM67.5128 1.81706C56.3953 1.81706 47.3508 6.51487 47.3508 12.2882C47.3508 13.8764 48.0362 15.4089 49.3904 16.8467C49.5408 17.0083 49.5408 17.2591 49.3904 17.4207C48.0362 18.8584 47.3508 20.3909 47.3508 21.9792C47.3508 23.5674 48.0362 25.0999 49.3904 26.5376C49.5408 26.6992 49.5408 26.95 49.3904 27.1116C48.0362 28.5494 47.3508 30.0819 47.3508 31.6701C47.3508 37.4434 56.3953 42.1412 67.5128 42.1412C78.6304 42.1412 87.6749 37.4434 87.6749 31.6701C87.6749 30.0819 86.9895 28.5438 85.6353 27.1116C85.4849 26.95 85.4849 26.6992 85.6353 26.5376C86.9895 25.0999 87.6749 23.5674 87.6749 21.9792C87.6749 20.3909 86.9895 18.8529 85.6353 17.4207C85.4849 17.2591 85.4849 17.0083 85.6353 16.8467C86.9895 15.4089 87.6749 13.8764 87.6749 12.2882C87.6749 6.51487 78.6304 1.81706 67.5128 1.81706Z" fill="#FF3000"/>
<path d="M81.4956 30.3886C81.3395 30.3886 81.1947 30.305 81.1222 30.1545C81.0219 29.9484 81.1055 29.6976 81.3117 29.5973C85.3575 27.6134 87.6757 24.8382 87.6757 21.9849C87.6757 19.1317 85.3575 16.3509 81.3117 14.3726C81.1055 14.2723 81.0163 14.0215 81.1222 13.8153C81.2225 13.6091 81.4733 13.52 81.6795 13.6259C86.0206 15.7546 88.5116 18.8029 88.5116 21.9905C88.5116 25.1781 86.0206 28.2264 81.6795 30.3552C81.6182 30.3719 81.5569 30.3886 81.4956 30.3886Z" fill="#FF3000"/>
<path d="M41.7829 1.39893C38.1217 1.39893 34.7892 3.47198 32.2982 6.86019C29.8072 3.47198 26.4747 1.39893 22.8134 1.39893C15.0896 1.39893 8.8259 10.6162 8.8259 21.979C8.8259 33.3473 15.0896 42.559 22.8134 42.559C26.4747 42.559 29.8072 40.486 32.2982 37.0977C34.7892 40.486 38.1217 42.559 41.7829 42.559C49.5067 42.559 55.7704 33.3417 55.7704 21.979C55.7704 10.6162 49.5123 1.39893 41.7829 1.39893Z" fill="#FFD37B"/>
<path d="M41.782 42.9828C38.2712 42.9828 34.922 41.1438 32.2972 37.7946C29.6725 41.1438 26.3233 42.9828 22.8125 42.9828C14.8658 42.9828 8.40701 33.5649 8.40701 21.9848C8.40701 10.4047 14.8714 0.986816 22.8125 0.986816C26.3233 0.986816 29.6725 2.82582 32.2972 6.17502C34.922 2.82582 38.2712 0.986816 41.782 0.986816C49.7287 0.986816 56.1875 10.4047 56.1875 21.9848C56.1875 33.5649 49.7287 42.9828 41.782 42.9828ZM32.2972 36.6856C32.431 36.6856 32.5536 36.7469 32.6316 36.8584C35.1393 40.2689 38.3938 42.1469 41.782 42.1469C49.2662 42.1469 55.3516 33.1024 55.3516 21.9848C55.3516 10.8672 49.2662 1.82272 41.782 1.82272C38.3938 1.82272 35.1449 3.70073 32.6316 7.11123C32.4756 7.32299 32.1133 7.32299 31.9573 7.11123C29.4496 3.70073 26.1951 1.82272 22.8069 1.82272C15.3228 1.82272 9.23734 10.8672 9.23734 21.9848C9.23734 33.1024 15.3228 42.1469 22.8069 42.1469C26.1951 42.1469 29.444 40.2689 31.9573 36.8584C32.0353 36.7469 32.1635 36.6856 32.2972 36.6856Z" fill="#FF3000"/>
<path d="M29.4402 12.289C31.7975 5.80792 36.4396 1.3999 41.7838 1.3999C49.5076 1.3999 55.7713 10.6172 55.7713 21.9799C55.7713 33.3427 49.5076 42.56 41.7838 42.56C36.1386 42.56 31.2792 37.6448 29.0669 30.5619" fill="#FFD37B"/>
<path d="M41.7826 42.9828C36.1486 42.9828 30.9994 38.1568 28.6645 30.695C28.5976 30.4721 28.7202 30.238 28.9375 30.1711C29.1549 30.1043 29.3889 30.2269 29.4614 30.4442C31.6849 37.555 36.5164 42.1469 41.7826 42.1469C49.2668 42.1469 55.3522 33.1024 55.3522 21.9848C55.3522 10.8672 49.2668 1.82272 41.7826 1.82272C36.7895 1.82272 32.2143 5.89081 29.8347 12.4332C29.7567 12.6505 29.5171 12.762 29.2998 12.6839C29.0824 12.6059 28.971 12.3663 29.049 12.149C31.5511 5.26109 36.4328 0.986816 41.7826 0.986816C49.7293 0.986816 56.1881 10.4047 56.1881 21.9848C56.1881 33.5649 49.7293 42.9828 41.7826 42.9828Z" fill="#FF3000"/>
<path d="M33.1911 65.0905C38.9776 60.1699 40.958 52.9935 37.6145 49.0616C34.271 45.1297 26.8696 45.9312 21.0831 50.8517C15.2966 55.7723 13.3162 62.9487 16.6597 66.8806C20.0032 70.8125 27.4046 70.011 33.1911 65.0905Z" fill="white"/>
<path d="M22.7251 69.7819C20.1338 69.7819 17.8489 68.9237 16.3443 67.1516C12.8558 63.05 14.862 55.5937 20.8136 50.5337C26.7653 45.4737 34.4501 44.6935 37.933 48.795C39.6438 50.8068 40.1064 53.6544 39.2315 56.8197C38.3733 59.9293 36.3281 62.9776 33.4637 65.4129C30.0811 68.2884 26.1411 69.7819 22.7251 69.7819ZM31.5523 46.9783C28.3424 46.9783 24.5919 48.4161 21.3542 51.169C15.7536 55.9337 13.792 62.8606 16.9796 66.611C20.1728 70.3614 27.3226 69.5367 32.9231 64.7776C35.6593 62.4538 37.6154 59.5448 38.4234 56.5968C39.2203 53.7046 38.8191 51.13 37.2921 49.3356C35.9491 47.7474 33.8984 46.9783 31.5523 46.9783Z" fill="#FF3000"/>
<path d="M134.464 38.4739C134.33 41.4553 134.102 43.9351 133.789 46.9165C133.472 50.2992 131.577 52.9629 127.832 52.9629C123.998 52.9629 122.143 50.2992 121.83 46.9165C120.928 38.3401 120.928 28.9055 121.83 20.3792C122.148 17.0412 123.998 14.3774 127.832 14.3774C130 14.3774 131.533 15.2356 132.524 16.5898C135.144 20.3347 137.713 25.9352 139.836 30.6275C140.154 31.2126 140.605 31.2126 140.917 30.6275C143.04 25.9352 145.565 20.3347 148.228 16.5898C149.176 15.2356 150.758 14.3774 152.921 14.3774C156.755 14.3774 158.56 17.0412 158.922 20.3792C159.781 28.9111 159.781 38.3457 158.922 46.9165C158.56 50.2992 156.755 52.9629 152.921 52.9629C149.176 52.9629 147.281 50.2992 146.963 46.9165C146.646 43.9351 146.423 41.4553 146.289 38.4739C147.281 36.3061 148.005 34.6844 148.546 32.6504C148.819 31.6138 147.732 31.3854 147.51 32.2436C146.473 35.4925 144.757 39.1036 143.174 41.9902C141.909 44.2918 138.838 44.2918 137.579 41.9902C136.002 39.1036 134.285 35.4925 133.243 32.2436C133.015 31.3854 131.934 31.6138 132.207 32.6504C132.753 34.6844 133.472 36.3061 134.464 38.4739Z" fill="#423227"/>
<path d="M163.582 46.0141C163.13 42.1801 163.041 38.1176 163.041 33.6037C163.041 29.0898 163.13 25.0273 163.582 21.2378C164.211 15.4589 171.255 13.971 177.753 13.9264C184.613 13.8818 191.791 15.1468 191.791 22.3691C191.791 25.3003 190.71 25.9802 187.143 25.0328C185.967 24.7152 184.568 24.4923 183.443 24.4923C180.194 24.4923 177.982 24.9882 176.042 25.7573C175.095 26.1195 175.413 27.4291 176.449 27.0223C180.422 25.6235 186.29 25.4898 188.726 26.9777C190.804 28.2873 191.796 30.2266 191.796 33.6148C191.796 36.9974 190.804 38.9869 188.726 40.2519C186.29 41.7844 180.422 41.6507 176.449 40.2073C175.413 39.8451 175.095 41.1101 176.042 41.4723C177.982 42.2414 180.194 42.6928 183.443 42.6928C184.568 42.6928 185.973 42.5144 187.143 42.1968C190.71 41.294 191.791 41.9237 191.791 44.816C191.791 52.0382 184.613 53.3478 177.753 53.3032C171.255 53.2363 164.211 51.6983 163.582 46.0141Z" fill="#423227"/>
<path d="M201.677 20.6914C205.332 20.6914 207.634 23.0821 207.634 26.8325C207.634 29.9923 205.104 32.2492 201.677 32.2492C198.11 32.2492 195.63 29.9923 195.63 26.8325C195.63 23.0821 198.066 20.6914 201.677 20.6914ZM201.677 36.8523C205.332 36.8523 207.634 39.2876 207.634 43.038C207.634 46.1531 205.104 48.4547 201.677 48.4547C198.11 48.4547 195.63 46.1531 195.63 43.038C195.63 39.2876 198.066 36.8523 201.677 36.8523Z" fill="#423227"/>
<path d="M211.067 33.6035C211.067 21.4606 215.804 13.9263 229.034 13.9263C242.302 13.9263 247 21.4662 247 33.6035C247 40.7366 244.698 46.287 240.458 49.6697C241.589 50.2994 242.848 51.3861 243.389 52.6009C244.47 54.9916 244.202 57.7891 240.909 59.4609C234.952 62.5315 230.031 54.5848 228.632 49.848C228.404 49.2629 227.551 49.5303 227.774 50.2102C228.047 51.2467 228.588 52.5117 229.039 53.2808C216.573 53.2808 211.067 45.7409 211.067 33.6035ZM228.944 37.0307C230.209 35.2252 230.521 32.7899 230.572 30.533C230.616 29.4964 229.039 29.541 228.995 30.2599C228.861 32.4723 228.454 34.367 227.417 36.5348C226.955 37.1645 228.354 37.7998 228.944 37.0307Z" fill="#423227"/>
</svg>
