<svg width="12" height="12" viewBox="0 0 12 12" fill="none" xmlns="http://www.w3.org/2000/svg">
<path d="M11.9928 10.111C12.0943 9.49675 11.1025 8.57822 10.0036 7.55262C9.05129 6.66227 7.98625 7.92454 7.6256 8.36972C7.55798 8.45425 7.43964 8.48806 7.33821 8.44861C6.98883 8.30773 6.13792 7.902 5.10105 6.89895C4.10363 5.86208 3.69227 5.01681 3.55139 4.66179C3.51194 4.56036 3.54012 4.44202 3.63028 4.3744C4.07546 4.01375 5.34336 2.94871 4.44738 1.99637C3.42178 0.897513 2.50325 -0.0942725 1.88902 0.00716015C1.27479 0.108593 0.559122 0.694648 0.108311 2.0978C-0.342501 3.50095 0.615474 6.75243 2.95406 9.04594C5.24757 11.3845 8.49905 12.3425 9.9022 11.8917C11.3054 11.4409 11.8914 10.7252 11.9928 10.111Z" fill="#FF7F00"/>
</svg>
