<svg width="32" height="32" viewBox="0 0 32 32" fill="none" xmlns="http://www.w3.org/2000/svg">
<path d="M2.88627 31.5048L10.2784 24.0959C12.6303 25.9454 15.5372 26.9479 18.5292 26.9416C21.1935 26.9416 23.7979 26.1515 26.0132 24.6713C28.2284 23.1911 29.955 21.0873 30.9746 18.6258C31.9942 16.1644 32.2609 13.4558 31.7412 10.8428C31.2214 8.22969 29.9384 5.82943 28.0545 3.94551C26.1706 2.06158 23.7703 0.778616 21.1572 0.258843C18.5442 -0.26093 15.8356 0.00583596 13.3742 1.02541C10.9127 2.04498 8.80886 3.77156 7.32867 5.98682C5.84848 8.20208 5.05843 10.8065 5.05843 13.4708C5.05209 16.4628 6.05464 19.3697 7.90413 21.7216L0.495204 29.1137C0.178129 29.4308 -1.20022e-06 29.8609 -1.20565e-06 30.3093C-1.21108e-06 30.7577 0.178129 31.1877 0.495204 31.5048C0.812279 31.8219 1.24232 32 1.69073 32C2.13915 32 2.56919 31.8219 2.88627 31.5048ZM11.3055 6.33127C12.9408 4.65896 15.1057 3.60586 17.4309 3.35164C19.756 3.09743 22.0973 3.65784 24.0554 4.93728C26.0134 6.21672 27.4669 8.13591 28.1677 10.3674C28.8686 12.5989 28.7736 15.0045 27.8987 17.1737C27.0238 19.3429 25.4234 21.1414 23.3705 22.2623C21.3176 23.3832 18.9393 23.7571 16.6415 23.3201C14.3437 22.8831 12.2687 21.6624 10.7705 19.8663C9.27227 18.0701 8.4437 15.8097 8.42613 13.4708C8.42848 10.7922 9.49446 8.22415 11.3897 6.33127L11.3055 6.33127Z" fill="#FF7F00"/>
<circle cx="18.6047" cy="13.3954" r="5.95349" fill="#FFD37B"/>
</svg>
