<svg width="187" height="69" viewBox="0 0 187 69" fill="none" xmlns="http://www.w3.org/2000/svg">
<path d="M19.7786 36.639C19.5798 41.0692 19.2403 44.7541 18.7766 49.1843C18.3046 54.2107 15.4891 58.1689 9.92448 58.1689C4.22733 58.1689 1.46983 54.2107 1.00611 49.1843C-0.33537 36.4402 -0.33537 22.4209 1.00611 9.75139C1.47811 4.79122 4.22733 0.833008 9.92448 0.833008C13.1457 0.833008 15.4229 2.10824 16.8969 4.12047C20.7888 9.68513 24.6063 18.0073 27.7612 24.9797C28.2332 25.8492 28.904 25.8492 29.3677 24.9797C32.5226 18.0073 36.2738 9.68513 40.232 4.12047C41.6398 2.10824 43.9915 0.833008 47.2044 0.833008C52.9016 0.833008 55.5845 4.79122 56.1228 9.75139C57.398 22.4292 57.398 36.4485 56.1228 49.1843C55.5845 54.2107 52.9016 58.1689 47.2044 58.1689C41.6397 58.1689 38.8243 54.2107 38.3523 49.1843C37.8803 44.7541 37.5491 41.0692 37.3503 36.639C38.8243 33.4178 39.9008 31.0081 40.704 27.9856C41.1098 26.4454 39.495 26.1059 39.1638 27.3811C37.6236 32.2088 35.0731 37.5747 32.7214 41.8641C30.8417 45.2841 26.279 45.2841 24.4075 41.8641C22.0641 37.5747 19.5136 32.2088 17.9651 27.3811C17.6256 26.1059 16.0191 26.4454 16.4249 27.9856C17.2281 30.9998 18.3046 33.4178 19.7786 36.639Z" fill="#423227"/>
<path d="M63.0371 47.8346C62.3664 42.1374 62.2339 36.1007 62.2339 29.3933C62.2339 22.6859 62.3664 16.6493 63.0371 11.0184C63.9728 2.43122 74.4397 0.220249 84.0951 0.154003C94.2887 0.0877565 104.954 1.96749 104.954 12.6993C104.954 17.055 103.348 18.0653 98.0481 16.6575C96.3009 16.1855 94.2224 15.8543 92.5497 15.8543C87.722 15.8543 84.4346 16.5913 81.5529 17.734C80.1451 18.2723 80.6172 20.2182 82.1574 19.6138C88.0615 17.5353 96.7812 17.3366 100.4 19.5475C103.489 21.4935 104.963 24.3752 104.963 29.4099C104.963 34.4363 103.489 37.3925 100.4 39.2723C96.7812 41.5495 88.0615 41.3507 82.1574 39.206C80.6172 38.6678 80.1451 40.5475 81.5529 41.0858C84.4346 42.2285 87.722 42.8992 92.5497 42.8992C94.2224 42.8992 96.3092 42.6342 98.0481 42.1622C103.348 40.8208 104.954 41.7565 104.954 46.0542C104.954 56.7861 94.2887 58.732 84.0951 58.6658C74.4397 58.5664 63.9811 56.2892 63.0371 47.8346Z" fill="#423227"/>
<path d="M119.653 10.2153C125.085 10.2153 128.505 13.7678 128.505 19.3407C128.505 24.0359 124.745 27.3896 119.653 27.3896C114.353 27.3896 110.668 24.0359 110.668 19.3407C110.66 13.7678 114.287 10.2153 119.653 10.2153ZM119.653 34.2212C125.085 34.2212 128.505 37.8399 128.505 43.4129C128.505 48.0418 124.745 51.4617 119.653 51.4617C114.353 51.4617 110.668 48.0418 110.668 43.4129C110.66 37.8399 114.287 34.2212 119.653 34.2212Z" fill="#423227"/>
<path d="M133.606 29.3931C133.606 11.3494 140.644 0.153809 160.303 0.153809C180.019 0.153809 187 11.3577 187 29.3931C187 39.9925 183.58 48.2401 177.278 53.2665C178.959 54.2023 180.831 55.817 181.634 57.6222C183.241 61.1747 182.843 65.3316 177.949 67.8158C169.097 72.3785 161.785 60.5702 159.707 53.5315C159.367 52.6621 158.1 53.0595 158.431 54.0698C158.837 55.61 159.64 57.4897 160.311 58.6325C141.787 58.6325 133.606 47.4369 133.606 29.3931ZM160.162 34.4858C162.042 31.8028 162.506 28.1842 162.58 24.8304C162.646 23.2902 160.303 23.3565 160.237 24.4247C160.038 27.7122 159.433 30.5276 157.893 33.7488C157.214 34.6928 159.293 35.6285 160.162 34.4858Z" fill="#423227"/>
</svg>
