<svg width="197" height="73" viewBox="0 0 197 73" fill="none" xmlns="http://www.w3.org/2000/svg">
<path d="M20.8362 38.917C20.6269 43.5841 20.2692 47.4661 19.7807 52.1332C19.2834 57.4284 16.3174 61.5983 10.4552 61.5983C4.45339 61.5983 1.54843 57.4284 1.05991 52.1332C-0.353304 38.7077 -0.353304 23.9387 1.05991 10.5916C1.55716 5.36617 4.45339 1.19629 10.4552 1.19629C13.8487 1.19629 16.2476 2.53972 17.8004 4.65955C21.9005 10.5218 25.9221 19.289 29.2458 26.6342C29.743 27.5502 30.4496 27.5502 30.9381 26.6342C34.2618 19.289 38.2136 10.5218 42.3835 4.65955C43.8665 2.53972 46.344 1.19629 49.7287 1.19629C55.7305 1.19629 58.557 5.36617 59.124 10.5916C60.4674 23.9474 60.4674 38.7164 59.124 52.1332C58.557 57.4284 55.7305 61.5983 49.7287 61.5983C43.8665 61.5983 40.9005 57.4284 40.4032 52.1332C39.906 47.4661 39.557 43.5841 39.3477 38.917C40.9004 35.5236 42.0345 32.985 42.8807 29.8009C43.3082 28.1783 41.6071 27.8206 41.2581 29.1641C39.6355 34.2499 36.9487 39.9028 34.4712 44.4216C32.4909 48.0244 27.6842 48.0244 25.7127 44.4216C23.2439 39.9028 20.5571 34.2499 18.9258 29.1641C18.5681 27.8206 16.8757 28.1783 17.3032 29.8009C18.1494 32.9763 19.2835 35.5236 20.8362 38.917Z" fill="#423227"/>
<path d="M66.4081 50.7116C65.7015 44.7097 65.562 38.3503 65.562 31.2842C65.562 24.2181 65.7015 17.8586 66.4081 11.9266C67.3939 2.88023 78.4205 0.551028 88.5922 0.48124C99.3309 0.411451 110.567 2.39171 110.567 13.6975C110.567 18.2861 108.874 19.3503 103.291 17.8673C101.451 17.3701 99.2611 17.0211 97.4989 17.0211C92.4131 17.0211 88.9498 17.7975 85.914 19.0014C84.431 19.5684 84.9283 21.6184 86.5509 20.9816C92.7708 18.792 101.957 18.5826 105.769 20.9118C109.023 22.9619 110.576 25.9977 110.576 31.3016C110.576 36.5968 109.023 39.7111 105.769 41.6914C101.957 44.0904 92.7708 43.881 86.5509 41.6216C84.9283 41.0546 84.431 43.0348 85.914 43.6019C88.9498 44.8057 92.4131 45.5123 97.4989 45.5123C99.2611 45.5123 101.459 45.2331 103.291 44.7359C108.874 43.3227 110.567 44.3085 110.567 48.836C110.567 60.1417 99.3309 62.1918 88.5922 62.122C78.4205 62.0173 67.4026 59.6183 66.4081 50.7116Z" fill="#423227"/>
<path d="M126.051 11.0806C131.774 11.0806 135.377 14.823 135.377 20.6939C135.377 25.6402 131.416 29.1732 126.051 29.1732C120.468 29.1732 116.586 25.6402 116.586 20.6939C116.577 14.823 120.398 11.0806 126.051 11.0806ZM126.051 36.3702C131.774 36.3702 135.377 40.1824 135.377 46.0534C135.377 50.9298 131.416 54.5327 126.051 54.5327C120.468 54.5327 116.586 50.9298 116.586 46.0534C116.577 40.1824 120.398 36.3702 126.051 36.3702Z" fill="#423227"/>
<path d="M140.75 31.2839C140.75 12.2752 148.165 0.480957 168.875 0.480957C189.646 0.480957 197 12.284 197 31.2839C197 42.4501 193.397 51.1387 186.759 56.4339C188.529 57.4197 190.501 59.1208 191.347 61.0225C193.04 64.765 192.621 69.1442 187.465 71.7613C178.14 76.5679 170.437 64.1281 168.247 56.7131C167.889 55.7971 166.555 56.2158 166.904 57.2801C167.331 58.9027 168.177 60.883 168.884 62.0868C149.369 62.0868 140.75 50.2926 140.75 31.2839ZM168.727 36.6489C170.707 33.8224 171.196 30.0102 171.274 26.4772C171.344 24.8546 168.875 24.9244 168.805 26.0498C168.596 29.513 167.959 32.479 166.337 35.8725C165.621 36.867 167.811 37.8527 168.727 36.6489Z" fill="#423227"/>
</svg>
